<svg width="18" height="18" viewBox="0 0 18 18" fill="none" xmlns="http://www.w3.org/2000/svg">
<path fill-rule="evenodd" clip-rule="evenodd" d="M5.48404 3.19355C5.48404 1.4298 7.04383 0 8.96792 0C10.892 0 12.4518 1.4298 12.4518 3.19355L12.4516 4.41935C12.4516 4.74004 12.168 5 11.8182 5C11.4684 5 11.2903 4.74004 11.2903 4.41935L11.2905 3.19355C11.2905 2.07116 10.1923 1.16129 8.96792 1.16129C7.74349 1.16129 6.64533 2.07116 6.64533 3.19355L6.64518 4.41935C6.64518 4.74004 6.46715 5 6.11732 5C5.76748 5 5.48389 4.74004 5.48389 4.41935L5.48404 3.19355Z" fill="white"/>
<path fill-rule="evenodd" clip-rule="evenodd" d="M5.48389 3.48389H3.74194C2.77989 3.48389 2 4.26378 2 5.22582V16.2581C2 17.2201 2.77989 18 3.74194 18H14.1935C15.1556 18 15.9355 17.2201 15.9355 16.2581V5.22582C15.9355 4.26378 15.1556 3.48389 14.1935 3.48389H12.4516V5.4193C12.4516 5.73998 12.168 5.99994 11.8182 5.99994C11.4684 5.99994 11.2903 5.73998 11.2903 5.4193V3.48389H6.64518V5.4193C6.64518 5.73998 6.46715 5.99994 6.11732 5.99994C5.76748 5.99994 5.48389 5.73998 5.48389 5.4193V3.48389ZM7.22582 9.00012C7.22582 9.48114 6.83588 9.87109 6.35485 9.87109C5.87383 9.87109 5.48389 9.48114 5.48389 9.00012C5.48389 8.5191 5.87383 8.12915 6.35485 8.12915C6.83588 8.12915 7.22582 8.5191 7.22582 9.00012ZM9.84855 9.69029C10.2512 9.38813 10.7495 9.20972 11.2904 9.20972C11.8313 9.20972 12.3296 9.38813 12.7322 9.69029C12.9531 9.85603 13.2665 9.81134 13.4322 9.59046C13.598 9.36959 13.5533 9.05618 13.3324 8.89044C12.763 8.46313 12.0555 8.20972 11.2904 8.20972C10.5253 8.20972 9.8178 8.46313 9.24835 8.89044C9.02748 9.05618 8.98279 9.36959 9.14853 9.59046C9.31427 9.81134 9.62768 9.85603 9.84855 9.69029ZM6.54485 12.0545C6.46805 11.7893 6.19076 11.6365 5.92551 11.7133C5.66027 11.7901 5.50751 12.0674 5.58431 12.3327C6.02702 13.8615 7.35314 15.0162 8.96781 15.0162C10.5825 15.0162 11.9086 13.8615 12.3513 12.3327C12.4281 12.0674 12.2753 11.7901 12.0101 11.7133C11.7449 11.6365 11.4676 11.7893 11.3908 12.0545C11.0536 13.2188 10.075 14.0162 8.96781 14.0162C7.86062 14.0162 6.88198 13.2188 6.54485 12.0545Z" fill="white"/>
</svg>