<svg width="384" height="100" viewBox="0 0 384 100" fill="none" xmlns="http://www.w3.org/2000/svg">
<path d="M133.129 47.2821C127.038 46.3077 124.903 45.5897 124.903 43.6923C124.903 41.9487 126.309 39.7949 132.452 39.7949C140.001 39.7949 141.095 43.4872 141.095 45.9487C143.906 45.9487 149.425 45.9487 149.425 45.9487C149.425 40.5128 146.614 32.718 132.452 32.718C120.53 32.718 116.729 38.5641 116.729 43.641C116.729 50.2051 121.623 52.4103 132.556 54C139.689 55.0256 142.188 55.4872 142.188 57.8974C142.188 60.6667 139.689 62.0513 133.702 62.0513C128.964 62.0513 124.122 61.1795 124.122 55.7949C119.644 55.7949 117.614 55.7949 116 55.7949C116 59.2308 115.948 69.0256 133.91 69.0256C144.583 69.0256 150.622 66.8205 150.622 57.8974C150.622 49.7949 141.303 48.6154 133.129 47.2821Z" fill="black"/>
<path d="M171.498 40.2564C166.292 40.2564 163.116 41.9487 161.241 44.5128H160.877V32H152.963V69.0256H160.877V55.1795C160.877 51.2821 162.387 46.9744 169.207 46.9744C176.808 46.9744 176.808 52.4103 176.808 54.6667V69.0256H184.67V54.6667C184.67 50.4615 183.889 40.2564 171.498 40.2564Z" fill="black"/>
<path d="M203.272 39.7436C194.421 39.7436 187.028 44.5128 187.028 54.4103C187.028 64.359 194.421 69.0256 203.272 69.0256C212.175 69.0256 219.568 64.5128 219.568 54.4103C219.568 44.4103 212.175 39.7436 203.272 39.7436ZM203.272 61.9487C198.326 61.9487 194.786 59.7949 194.786 54.4103C194.786 48.9744 198.326 46.8718 203.272 46.8718C208.27 46.8718 211.811 49.0769 211.811 54.4103C211.811 59.5897 208.27 61.9487 203.272 61.9487Z" fill="black"/>
<path d="M240.912 40.3077C235.497 40.3077 232.165 42 230.186 44.5128H229.77V40.3077H221.856V80H229.77V65.0769H230.134C232.113 67.5897 235.445 69.1282 240.912 69.1282C253.199 69.1282 254.552 58.5641 254.552 54.7179C254.552 50.5128 253.251 40.3077 240.912 40.3077ZM238.621 62.4103C231.748 62.4103 230.343 59.0769 230.343 54.7179C230.343 50.8205 231.748 47.0256 238.621 47.0256C246.17 47.0256 247.003 52.4615 247.003 54.7179C247.003 56.7692 246.17 62.4103 238.621 62.4103Z" fill="black"/>
<path d="M285.562 55.3846C284.573 58.9231 281.918 61.0769 275.826 61.0769C269.579 61.0769 265.258 57.9487 265.258 50.8205C265.258 43.6923 269.579 40.5128 275.826 40.5128C281.71 40.5128 284.417 42.359 285.562 46.2564H293.789C293.268 38.5641 285.979 32.5641 275.826 32.5641C265.362 32.5641 257.396 39.0256 257.396 50.8205C257.396 62.8205 265.362 69.0256 275.826 69.0256C285.979 69.0256 293.06 63.3846 293.789 55.3846H285.562Z" fill="black"/>
<path d="M313.516 40.2564C308.466 40.2564 306.695 41.7436 305.029 44.5128H304.561V40.2564H296.647V69.0256H304.561V56.1538C304.561 52.2564 306.279 47.7436 312.162 47.7436C314.661 47.7436 316.692 48.1538 317.421 48.359L318.67 41.0256C317.316 40.7179 315.598 40.2564 313.516 40.2564Z" fill="black"/>
<path d="M348.979 56.4615H349.292C349.708 52.5128 349.188 46.4615 343.565 42.6667V42.718C341.118 41.0256 337.786 40 333.673 40C323.833 40 318.001 45.1282 318.001 54.5128C318.001 64.1026 323.676 69.0256 333.673 69.0256C343.252 69.0256 348.355 65.2308 349.136 59.0256H341.482C340.753 60.9231 338.41 62.2051 333.673 62.2051C328.57 62.2051 326.228 60.3077 325.655 56.4615H348.979ZM333.673 46.8205C339.296 46.8205 340.753 49.1795 341.378 51.3333H325.967C326.904 48.4103 329.299 46.8205 333.673 46.8205Z" fill="black"/>
<path d="M376.086 32V44.5128H375.618C373.639 41.9487 370.359 40.2564 364.945 40.2564C352.606 40.2564 351.304 50.4615 351.304 54.6667C351.304 58.5128 352.658 69.0256 364.893 69.0256C370.411 69.0256 373.743 67.5385 375.722 65.0256H376.086V69.0256H384V32H376.086ZM367.235 62.359C359.686 62.359 358.853 56.718 358.853 54.6667C358.853 52.4103 359.634 46.9744 367.235 46.9744C374.056 46.9744 375.462 50.7692 375.462 54.6667C375.462 59.0256 374.056 62.359 367.235 62.359Z" fill="black"/>
<circle cx="50" cy="50" r="50" fill="#7C4FB9"/>
<path fill-rule="evenodd" clip-rule="evenodd" d="M26 34C26 30.6863 28.6863 28 32 28H68C71.3137 28 74 30.6863 74 34V74C74 77.3137 71.3137 80 68 80H32C28.6863 80 26 77.3137 26 74V34ZM32 32C30.8954 32 30 32.8954 30 34V74C30 75.1046 30.8954 76 32 76H68C69.1046 76 70 75.1046 70 74V34C70 32.8954 69.1046 32 68 32H32Z" fill="white"/>
<path fill-rule="evenodd" clip-rule="evenodd" d="M38 27C38 20.9249 43.3726 16 50 16C56.6274 16 62 20.9249 62 27V34C62 35.1046 61.0232 36 59.8182 36C58.6132 36 58 35.1046 58 34V27C58 23.134 54.2174 20 50 20C45.7826 20 42 23.134 42 27V34C42 35.1046 41.3868 36 40.1818 36C38.9768 36 38 35.1046 38 34V27Z" fill="white"/>
<path d="M44 47C44 48.6569 42.6569 50 41 50C39.3431 50 38 48.6569 38 47C38 45.3431 39.3431 44 41 44C42.6569 44 44 45.3431 44 47Z" fill="white"/>
<path d="M40 58C41.343 62.6382 45.3123 66 50 66C54.6877 66 58.657 62.6382 60 58" stroke="white" stroke-width="4" stroke-linecap="round"/>
<path d="M52 48C53.6742 46.7437 55.7508 46 58 46C60.2492 46 62.3258 46.7437 64 48" stroke="white" stroke-width="4" stroke-linecap="round"/>
</svg>
