<svg width="661" height="160" viewBox="0 0 661 160" fill="none" xmlns="http://www.w3.org/2000/svg">
<path d="M213.538 110.82C204.846 110.82 197.931 109.153 192.792 105.818C187.708 102.483 185.002 97.782 184.674 91.714H194.514C194.842 96.7433 196.537 100.406 199.598 102.702C202.714 104.998 207.306 106.146 213.374 106.146C218.458 106.146 222.257 105.244 224.772 103.44C227.341 101.636 228.626 99.012 228.626 95.568C228.626 93.6547 228.161 92.0147 227.232 90.648C226.303 89.2813 224.581 88.0513 222.066 86.958C219.551 85.8647 215.943 84.8533 211.242 83.924C203.862 82.448 197.821 80.4253 193.12 77.856C188.473 75.2867 186.15 71.5693 186.15 66.704C186.15 61.3467 188.61 57.5473 193.53 55.306C198.45 53.01 204.791 51.862 212.554 51.862C220.973 51.862 227.396 53.2833 231.824 56.126C236.252 58.9687 238.712 62.8227 239.204 67.688H229.528C228.763 63.6973 226.931 60.8547 224.034 59.16C221.137 57.4107 217.146 56.536 212.062 56.536C207.415 56.536 203.944 57.3287 201.648 58.914C199.352 60.4447 198.204 62.4673 198.204 64.982C198.204 66.4033 198.614 67.6607 199.434 68.754C200.254 69.8473 201.839 70.886 204.19 71.87C206.595 72.854 210.067 73.838 214.604 74.822C220.672 76.134 225.51 77.4733 229.118 78.84C232.726 80.2067 235.569 82.12 237.646 84.58C239.723 87.04 240.762 90.2653 240.762 94.256C240.762 97.7 239.641 100.679 237.4 103.194C235.159 105.654 231.988 107.54 227.888 108.852C223.788 110.164 219.005 110.82 213.538 110.82ZM249.444 69.82H259.94V76.052C260.924 73.92 262.618 72.2253 265.024 70.968C267.429 69.656 270.162 69 273.224 69C277.214 69 280.467 69.7927 282.982 71.378C285.551 72.9087 287.382 75.0953 288.476 77.938C289.678 74.822 291.482 72.5533 293.888 71.132C296.348 69.7107 299.19 69 302.416 69C307.992 69 312.174 70.2847 314.962 72.854C317.804 75.4233 319.226 79.168 319.226 84.088V110H308.566V83.35C308.566 80.0153 307.8 77.446 306.27 75.642C304.739 73.838 302.607 72.936 299.874 72.936C296.594 72.936 294.024 74.412 292.166 77.364C290.362 80.2613 289.46 84.3887 289.46 89.746V110H279.128V86.876C279.128 82.3933 278.335 78.9493 276.75 76.544C275.164 74.1387 272.896 72.936 269.944 72.936C266.828 72.936 264.395 74.1933 262.646 76.708C260.896 79.168 260.022 82.6667 260.022 87.204V110H249.444V69.82ZM344.19 110.82C338.505 110.82 334.241 109.754 331.398 107.622C328.556 105.49 327.134 102.429 327.134 98.438C327.134 94.2833 328.829 91.0853 332.218 88.844C335.662 86.6027 340.61 85.482 347.06 85.482H358.212V82.694C358.212 79.5233 357.31 77.118 355.506 75.478C353.702 73.7833 351.106 72.936 347.716 72.936C344.436 72.936 341.812 73.756 339.844 75.396C337.931 76.9813 336.756 79.3047 336.318 82.366H328.282C328.884 78.0473 330.934 74.74 334.432 72.444C337.931 70.148 342.66 69 348.618 69C355.124 69 360.098 70.2573 363.542 72.772C367.041 75.2867 368.79 78.8947 368.79 83.596V96.716C368.79 101.527 369.2 105.955 370.02 110H360.098C359.552 107.923 359.169 105.927 358.95 104.014C357.365 106.365 355.288 108.087 352.718 109.18C350.149 110.273 347.306 110.82 344.19 110.82ZM346.568 107.048C350.122 107.048 352.937 106.037 355.014 104.014C357.146 101.937 358.212 99.258 358.212 95.978V89.5H350.012C345.967 89.5 342.906 90.2653 340.828 91.796C338.751 93.272 337.712 95.4587 337.712 98.356C337.712 101.199 338.45 103.358 339.926 104.834C341.457 106.31 343.671 107.048 346.568 107.048ZM378.601 69.82H389.261V78.184C390.245 75.2867 391.858 73.0453 394.099 71.46C396.341 69.82 399.129 69 402.463 69C403.447 69 404.377 69.1093 405.251 69.328L404.513 75.806C403.639 75.3687 402.491 75.15 401.069 75.15C397.133 75.15 394.181 76.79 392.213 80.07C390.245 83.2953 389.261 87.1493 389.261 91.632V110H378.601V69.82ZM423.751 110.82C419.815 110.82 416.835 109.809 414.813 107.786C412.79 105.763 411.779 102.757 411.779 98.766V73.756H404.645L405.957 69.82H411.943L414.895 58.504H422.357V69.82H433.509L432.279 73.756H422.357V99.668C422.357 104.369 424.188 106.72 427.851 106.72C429.764 106.72 431.705 106.201 433.673 105.162V109.262C431.158 110.301 427.851 110.82 423.751 110.82Z" fill="black"/>
<path d="M467.354 110.82C458.662 110.82 451.746 109.153 446.608 105.818C441.524 102.483 438.818 97.782 438.49 91.714H448.33C448.658 96.7433 450.352 100.406 453.414 102.702C456.53 104.998 461.122 106.146 467.19 106.146C472.274 106.146 476.073 105.244 478.588 103.44C481.157 101.636 482.442 99.012 482.442 95.568C482.442 93.6547 481.977 92.0147 481.048 90.648C480.118 89.2813 478.396 88.0513 475.882 86.958C473.367 85.8647 469.759 84.8533 465.058 83.924C457.678 82.448 451.637 80.4253 446.936 77.856C442.289 75.2867 439.966 71.5693 439.966 66.704C439.966 61.3467 442.426 57.5473 447.346 55.306C452.266 53.01 458.607 51.862 466.37 51.862C474.788 51.862 481.212 53.2833 485.64 56.126C490.068 58.9687 492.528 62.8227 493.02 67.688H483.344C482.578 63.6973 480.747 60.8547 477.85 59.16C474.952 57.4107 470.962 56.536 465.878 56.536C461.231 56.536 457.76 57.3287 455.464 58.914C453.168 60.4447 452.02 62.4673 452.02 64.982C452.02 66.4033 452.43 67.6607 453.25 68.754C454.07 69.8473 455.655 70.886 458.006 71.87C460.411 72.854 463.882 73.838 468.42 74.822C474.488 76.134 479.326 77.4733 482.934 78.84C486.542 80.2067 489.384 82.12 491.462 84.58C493.539 87.04 494.578 90.2653 494.578 94.256C494.578 97.7 493.457 100.679 491.216 103.194C488.974 105.654 485.804 107.54 481.704 108.852C477.604 110.164 472.82 110.82 467.354 110.82ZM503.095 53.994H513.755V76.79C515.013 74.3847 516.981 72.4987 519.659 71.132C522.338 69.7107 525.345 69 528.679 69C533.982 69 538.164 70.3667 541.225 73.1C544.287 75.7787 545.817 79.4687 545.817 84.17V110H535.157V83.432C535.157 80.0427 534.365 77.446 532.779 75.642C531.194 73.838 528.871 72.936 525.809 72.936C522.147 72.936 519.222 74.2753 517.035 76.954C514.849 79.578 513.755 83.0767 513.755 87.45V110H503.095V53.994ZM577.345 110.82C572.37 110.82 568.024 109.973 564.307 108.278C560.644 106.583 557.802 104.178 555.779 101.062C553.811 97.8913 552.827 94.174 552.827 89.91C552.827 85.646 553.811 81.956 555.779 78.84C557.802 75.6693 560.644 73.2367 564.307 71.542C568.024 69.8473 572.37 69 577.345 69C582.32 69 586.638 69.8473 590.301 71.542C594.018 73.2367 596.861 75.6693 598.829 78.84C600.797 81.956 601.781 85.646 601.781 89.91C601.781 94.174 600.797 97.8913 598.829 101.062C596.861 104.178 594.018 106.583 590.301 108.278C586.638 109.973 582.32 110.82 577.345 110.82ZM577.345 106.884C581.609 106.884 584.971 105.381 587.431 102.374C589.891 99.3127 591.121 95.158 591.121 89.91C591.121 84.662 589.891 80.5347 587.431 77.528C584.971 74.4667 581.609 72.936 577.345 72.936C573.081 72.936 569.719 74.4667 567.259 77.528C564.799 80.5347 563.569 84.662 563.569 89.91C563.569 95.158 564.799 99.3127 567.259 102.374C569.719 105.381 573.081 106.884 577.345 106.884ZM609.763 69.82H620.423V76.38C622.008 74.084 624.085 72.28 626.655 70.968C629.279 69.656 632.231 69 635.511 69C642.18 69 647.346 70.8313 651.009 74.494C654.726 78.102 656.585 83.104 656.585 89.5C656.585 93.8733 655.71 97.6727 653.961 100.898C652.266 104.069 649.833 106.529 646.663 108.278C643.547 109.973 639.857 110.82 635.593 110.82C632.094 110.82 629.06 110.164 626.491 108.852C623.921 107.485 621.899 105.49 620.423 102.866V125.58H609.763V69.82ZM633.051 107.13C636.987 107.13 640.13 105.517 642.481 102.292C644.831 99.012 646.007 94.6933 646.007 89.336C646.007 84.088 644.886 80.0427 642.645 77.2C640.403 74.3027 637.287 72.854 633.297 72.854C629.361 72.854 626.217 74.412 623.867 77.528C621.571 80.5893 620.423 84.7167 620.423 89.91C620.423 95.2673 621.543 99.4767 623.785 102.538C626.026 105.599 629.115 107.13 633.051 107.13Z" fill="#7C3FC6"/>
<rect width="160" height="160" rx="60" fill="#7C3FC6"/>
<circle cx="109" cy="47" r="15" fill="url(#paint0_linear_1155_7671)"/>
<g filter="url(#filter0_b_1155_7671)">
<mask id="path-4-inside-1_1155_7671" fill="white">
<path d="M50.0219 51.8321C50.6316 48.459 53.6341 46 57.1428 46H102.857C106.366 46 109.369 48.459 109.978 51.8321L121.888 117.714C122.67 122.037 119.264 126 114.767 126H45.233C40.7367 126 37.3306 122.037 38.112 117.714L50.0219 51.8321Z"/>
</mask>
<path d="M50.0219 51.8321C50.6316 48.459 53.6341 46 57.1428 46H102.857C106.366 46 109.369 48.459 109.978 51.8321L121.888 117.714C122.67 122.037 119.264 126 114.767 126H45.233C40.7367 126 37.3306 122.037 38.112 117.714L50.0219 51.8321Z" fill="url(#paint1_linear_1155_7671)" fill-opacity="0.6"/>
<path d="M38.112 117.714L39.0961 117.892L38.112 117.714ZM121.888 117.714L120.904 117.892L121.888 117.714ZM109.978 51.8321L110.962 51.6542L109.978 51.8321ZM50.0219 51.8321L51.0059 52.01L50.0219 51.8321ZM57.1428 47H102.857V45H57.1428V47ZM108.994 52.01L120.904 117.892L122.872 117.537L110.962 51.6542L108.994 52.01ZM114.767 125H45.233V127H114.767V125ZM39.0961 117.892L51.0059 52.01L49.0378 51.6542L37.128 117.537L39.0961 117.892ZM45.233 125C41.331 125 38.4307 121.573 39.0961 117.892L37.128 117.537C36.2305 122.501 40.1425 127 45.233 127V125ZM120.904 117.892C121.57 121.573 118.669 125 114.767 125V127C119.858 127 123.77 122.501 122.872 117.537L120.904 117.892ZM102.857 47C105.9 47 108.474 49.1294 108.994 52.01L110.962 51.6542C110.264 47.7886 106.833 45 102.857 45V47ZM57.1428 45C53.1674 45 49.7366 47.7886 49.0378 51.6542L51.0059 52.01C51.5267 49.1294 54.1007 47 57.1428 47V45Z" fill="url(#paint2_linear_1155_7671)" mask="url(#path-4-inside-1_1155_7671)"/>
</g>
<path fill-rule="evenodd" clip-rule="evenodd" d="M67.9489 60.1174C69.2801 60.1174 70.3592 61.1709 70.3592 62.4704C70.3592 64.9665 71.375 67.3604 73.1831 69.1255C74.9912 70.8905 77.4435 71.8821 80.0006 71.8821C82.5576 71.8821 85.0099 70.8905 86.818 69.1255C88.6261 67.3604 89.6419 64.9665 89.6419 62.4704C89.6419 61.1709 90.721 60.1174 92.0522 60.1174C93.3834 60.1174 94.4625 61.1709 94.4625 62.4704C94.4625 66.2146 92.9389 69.8055 90.2267 72.4531C87.5146 75.1006 83.8361 76.588 80.0006 76.588C76.165 76.588 72.4865 75.1006 69.7744 72.4531C67.0622 69.8055 65.5386 66.2146 65.5386 62.4704C65.5386 61.1709 66.6177 60.1174 67.9489 60.1174Z" fill="white"/>
<defs>
<filter id="filter0_b_1155_7671" x="23" y="31" width="114" height="110" filterUnits="userSpaceOnUse" color-interpolation-filters="sRGB">
<feFlood flood-opacity="0" result="BackgroundImageFix"/>
<feGaussianBlur in="BackgroundImageFix" stdDeviation="7.5"/>
<feComposite in2="SourceAlpha" operator="in" result="effect1_backgroundBlur_1155_7671"/>
<feBlend mode="normal" in="SourceGraphic" in2="effect1_backgroundBlur_1155_7671" result="shape"/>
</filter>
<linearGradient id="paint0_linear_1155_7671" x1="101.151" y1="36.5634" x2="138.625" y2="45.7641" gradientUnits="userSpaceOnUse">
<stop stop-color="#FF6161"/>
<stop offset="1" stop-color="#F52828"/>
</linearGradient>
<linearGradient id="paint1_linear_1155_7671" x1="49.92" y1="126.08" x2="108.16" y2="46.08" gradientUnits="userSpaceOnUse">
<stop stop-color="white" stop-opacity="0.7"/>
<stop offset="1" stop-color="white" stop-opacity="0.35"/>
</linearGradient>
<linearGradient id="paint2_linear_1155_7671" x1="90.8183" y1="55.6" x2="57.5957" y2="126.078" gradientUnits="userSpaceOnUse">
<stop stop-color="white" stop-opacity="0"/>
<stop offset="1" stop-color="white" stop-opacity="0.85"/>
</linearGradient>
</defs>
</svg>
