<svg width="18" height="18" viewBox="0 0 18 18" fill="none" xmlns="http://www.w3.org/2000/svg">
<rect width="18" height="18" rx="9" fill="#7C3FC6"/>
<circle cx="12.2627" cy="5.28748" r="1.6875" fill="url(#paint0_linear_1155_7679)"/>
<g filter="url(#filter0_b_1155_7679)">
<mask id="path-3-inside-1_1155_7679" fill="white">
<path d="M5.62736 5.83116C5.69596 5.45168 6.03373 5.17505 6.42847 5.17505H11.5714C11.9661 5.17505 12.3039 5.45169 12.3725 5.83116L13.7123 13.2429C13.8002 13.7292 13.417 14.1751 12.9112 14.1751H5.08861C4.58279 14.1751 4.1996 13.7292 4.2875 13.2429L5.62736 5.83116Z"/>
</mask>
<path d="M5.62736 5.83116C5.69596 5.45168 6.03373 5.17505 6.42847 5.17505H11.5714C11.9661 5.17505 12.3039 5.45169 12.3725 5.83116L13.7123 13.2429C13.8002 13.7292 13.417 14.1751 12.9112 14.1751H5.08861C4.58279 14.1751 4.1996 13.7292 4.2875 13.2429L5.62736 5.83116Z" fill="url(#paint1_linear_1155_7679)" fill-opacity="0.6"/>
<path d="M4.2875 13.2429L5.27155 13.4208L4.2875 13.2429ZM13.7123 13.2429L12.7283 13.4208L12.7283 13.4208L13.7123 13.2429ZM12.3725 5.83116L13.3565 5.65327L13.3565 5.65327L12.3725 5.83116ZM5.62736 5.83116L6.61141 6.00905L5.62736 5.83116ZM6.42847 6.17505H11.5714V4.17505H6.42847V6.17505ZM11.3884 6.00905L12.7283 13.4208L14.6964 13.065L13.3565 5.65327L11.3884 6.00905ZM12.9112 13.1751H5.08861V15.1751H12.9112V13.1751ZM5.27155 13.4208L6.61141 6.00905L4.64331 5.65327L3.30345 13.065L5.27155 13.4208ZM5.08861 13.1751C5.17705 13.1751 5.2997 13.2651 5.27155 13.4208L3.30345 13.065C3.09949 14.1933 3.98852 15.1751 5.08861 15.1751V13.1751ZM12.7283 13.4208C12.7001 13.2651 12.8228 13.1751 12.9112 13.1751V15.1751C14.0113 15.1751 14.9003 14.1933 14.6964 13.065L12.7283 13.4208ZM11.5714 6.17505C11.4995 6.17505 11.4089 6.12211 11.3884 6.00905L13.3565 5.65327C13.1989 4.78126 12.4327 4.17505 11.5714 4.17505V6.17505ZM6.42847 4.17505C5.56711 4.17505 4.80095 4.78126 4.64331 5.65327L6.61141 6.00905C6.59098 6.12211 6.50035 6.17505 6.42847 6.17505V4.17505Z" fill="url(#paint2_linear_1155_7679)" mask="url(#path-3-inside-1_1155_7679)"/>
</g>
<path fill-rule="evenodd" clip-rule="evenodd" d="M7.64421 6.76318C7.79397 6.76318 7.91537 6.8817 7.91537 7.02789C7.91537 7.30871 8.02965 7.57802 8.23306 7.77659C8.43647 7.97516 8.71235 8.08671 9.00002 8.08671C9.28769 8.08671 9.56357 7.97516 9.76698 7.77659C9.97039 7.57802 10.0847 7.30871 10.0847 7.02789C10.0847 6.8817 10.2061 6.76318 10.3558 6.76318C10.5056 6.76318 10.627 6.8817 10.627 7.02789C10.627 7.44912 10.4556 7.85309 10.1505 8.15094C9.84535 8.44879 9.43152 8.61613 9.00002 8.61613C8.56852 8.61613 8.15469 8.44879 7.84958 8.15094C7.54446 7.85309 7.37305 7.44912 7.37305 7.02789C7.37305 6.8817 7.49445 6.76318 7.64421 6.76318Z" fill="white"/>
<defs>
<filter id="filter0_b_1155_7679" x="-10.7251" y="-9.82495" width="39.4502" height="39" filterUnits="userSpaceOnUse" color-interpolation-filters="sRGB">
<feFlood flood-opacity="0" result="BackgroundImageFix"/>
<feGaussianBlur in="BackgroundImageFix" stdDeviation="7.5"/>
<feComposite in2="SourceAlpha" operator="in" result="effect1_backgroundBlur_1155_7679"/>
<feBlend mode="normal" in="SourceGraphic" in2="effect1_backgroundBlur_1155_7679" result="shape"/>
</filter>
<linearGradient id="paint0_linear_1155_7679" x1="11.3797" y1="4.11336" x2="15.5956" y2="5.14843" gradientUnits="userSpaceOnUse">
<stop stop-color="#FF6161"/>
<stop offset="1" stop-color="#F52828"/>
</linearGradient>
<linearGradient id="paint1_linear_1155_7679" x1="5.6159" y1="14.184" x2="12.1679" y2="5.18405" gradientUnits="userSpaceOnUse">
<stop stop-color="white" stop-opacity="0.7"/>
<stop offset="1" stop-color="white" stop-opacity="0.35"/>
</linearGradient>
<linearGradient id="paint2_linear_1155_7679" x1="10.217" y1="6.25505" x2="6.47941" y2="14.1838" gradientUnits="userSpaceOnUse">
<stop stop-color="white" stop-opacity="0"/>
<stop offset="1" stop-color="white" stop-opacity="0.85"/>
</linearGradient>
</defs>
</svg>