<svg width="18" height="18" viewBox="0 0 52 52" fill="none" xmlns="http://www.w3.org/2000/svg">
<path fillRule="evenodd" clipRule="evenodd" d="M52 26C52 40.3594 40.3594 52 26 52C11.6406 52 0 40.3594 0 26C0 11.6406 11.6406 0 26 0C40.3594 0 52 11.6406 52 26ZM16.5351 19.5295C14.3765 21.6881 14.3765 25.1894 16.5351 27.348L24.0647 19.8185C26.2233 17.6599 26.2233 14.1586 24.0647 12L16.5351 19.5295ZM27.8209 38.6338C25.6624 36.4752 25.6624 32.9739 27.8209 30.8153L35.3505 23.2858C37.5091 25.4444 37.5091 28.9457 35.3505 31.1043L27.8209 38.6338ZM16.7221 38.7868L20.1214 35.3874L26.8011 28.7077C28.9597 26.5491 28.9597 23.0478 26.8011 20.8892L16.7221 30.9683C14.5635 33.1269 14.5635 36.6282 16.7221 38.7868Z" fill="#ffffff"/>
</svg>
